<svg width="26" height="26" viewBox="0 0 26 26" fill="none" xmlns="http://www.w3.org/2000/svg">
<path fill-rule="evenodd" clip-rule="evenodd" d="M0 7.46592C0 3.34283 3.34222 0 7.46592 0H18.5336H18.5341C22.6574 0.000277221 26 3.34233 26 7.46592V18.5336C26 22.6572 22.6572 26 18.5336 26H7.46643C3.34288 26 0 22.6578 0 18.5341V7.46592ZM18.5336 2H7.46592C4.44689 2 2 4.4473 2 7.46592V18.5341C2 21.5531 4.44725 24 7.46643 24H18.5336C21.5526 24 24 21.5526 24 18.5336V7.46592C24 4.44711 21.553 2.00028 18.5341 2H18.5336ZM13 8.20679C10.3528 8.20679 8.20679 10.3528 8.20679 13C8.20679 15.6472 10.3528 17.7932 13 17.7932C15.6472 17.7932 17.7932 15.6472 17.7932 13C17.7932 10.3528 15.6472 8.20679 13 8.20679ZM6.20679 13C6.20679 9.24821 9.2482 6.20679 13 6.20679C16.7518 6.20679 19.7932 9.24821 19.7932 13C19.7932 16.7518 16.7518 19.7932 13 19.7932C9.2482 19.7932 6.20679 16.7518 6.20679 13ZM21.2757 5.96562C21.2757 6.65115 20.72 7.20688 20.0345 7.20688C19.3489 7.20688 18.7932 6.65115 18.7932 5.96562C18.7932 5.2801 19.3489 4.72437 20.0345 4.72437C20.72 4.72437 21.2757 5.2801 21.2757 5.96562Z" fill="white"/>
</svg>
