<svg width="20" height="30" viewBox="0 0 20 30" fill="none" xmlns="http://www.w3.org/2000/svg">
<path fill-rule="evenodd" clip-rule="evenodd" d="M8 1H12C15.866 1 19 4.13401 19 8V22C19 25.866 15.866 29 12 29H8C4.13401 29 1 25.866 1 22V8C1 4.13401 4.13401 1 8 1ZM0 8C0 3.58172 3.58172 0 8 0H12C16.4183 0 20 3.58172 20 8V22C20 26.4183 16.4183 30 12 30H8C3.58172 30 0 26.4183 0 22V8ZM10 11C11.1046 11 12 10.1046 12 9C12 7.89543 11.1046 7 10 7C8.89543 7 8 7.89543 8 9C8 10.1046 8.89543 11 10 11Z" fill="white"/>
</svg>
